<mxfile host="app.diagrams.net" agent="Mozilla/5.0 (X11; Linux x86_64) AppleWebKit/537.36 (KHTML, like Gecko) Chrome/130.0.0.0 Safari/537.36" version="24.8.2">
  <diagram name="Page-1" id="ajGWYptA3wK_FwI5TFOz">
    <mxGraphModel dx="663" dy="378" grid="1" gridSize="10" guides="1" tooltips="1" connect="1" arrows="1" fold="1" page="1" pageScale="1" pageWidth="850" pageHeight="1100" math="0" shadow="0">
      <root>
        <mxCell id="0" />
        <mxCell id="1" parent="0" />
        <mxCell id="u6u-6mcUBMvmuvBpNIPu-1" value="" style="whiteSpace=wrap;html=1;aspect=fixed;labelBackgroundColor=none;fillColor=#F2CC8F;strokeColor=#E07A5F;fontColor=#393C56;" vertex="1" parent="1">
          <mxGeometry x="150" y="305" width="90" height="90" as="geometry" />
        </mxCell>
        <mxCell id="u6u-6mcUBMvmuvBpNIPu-2" value="" style="endArrow=none;html=1;rounded=0;entryX=1;entryY=0.25;entryDx=0;entryDy=0;labelBackgroundColor=none;strokeColor=#E07A5F;fontColor=default;fillColor=#F2CC8F;exitX=0;exitY=0.25;exitDx=0;exitDy=0;" edge="1" parent="1" source="u6u-6mcUBMvmuvBpNIPu-1" target="u6u-6mcUBMvmuvBpNIPu-1">
          <mxGeometry width="50" height="50" relative="1" as="geometry">
            <mxPoint x="160" y="310" as="sourcePoint" />
            <mxPoint x="210" y="310" as="targetPoint" />
          </mxGeometry>
        </mxCell>
        <mxCell id="u6u-6mcUBMvmuvBpNIPu-3" value="" style="edgeLabel;html=1;align=center;verticalAlign=middle;resizable=0;points=[];strokeColor=#E07A5F;fontColor=#393C56;fillColor=#F2CC8F;labelBackgroundColor=none;" vertex="1" connectable="0" parent="u6u-6mcUBMvmuvBpNIPu-2">
          <mxGeometry x="-0.2179" y="1" relative="1" as="geometry">
            <mxPoint as="offset" />
          </mxGeometry>
        </mxCell>
        <mxCell id="u6u-6mcUBMvmuvBpNIPu-4" value="Web Browser" style="fillColor=none;strokeColor=none;html=1;fontSize=11;fontStyle=0;align=center;fontColor=#393C56;fontStyle=1;fontSize=11;labelBackgroundColor=none;" vertex="1" parent="1">
          <mxGeometry x="145" y="305" width="100" height="20" as="geometry" />
        </mxCell>
        <mxCell id="u6u-6mcUBMvmuvBpNIPu-6" value="&lt;h5 style=&quot;line-height: 120%;&quot;&gt;&lt;font color=&quot;#00ff00&quot; style=&quot;font-size: 7px;&quot;&gt;http://example.com&lt;/font&gt;&lt;/h5&gt;" style="fillColor=none;strokeColor=none;html=1;fontSize=11;fontStyle=0;align=left;fontColor=#393C56;fontStyle=1;fontSize=11;labelBackgroundColor=none;" vertex="1" parent="1">
          <mxGeometry x="160" y="325" width="70" height="20" as="geometry" />
        </mxCell>
        <mxCell id="u6u-6mcUBMvmuvBpNIPu-11" value="" style="rounded=1;whiteSpace=wrap;html=1;strokeColor=#E07A5F;fontColor=#393C56;fillColor=#F2CC8F;labelBackgroundColor=none;" vertex="1" parent="1">
          <mxGeometry x="320" y="300" width="150" height="90" as="geometry" />
        </mxCell>
        <mxCell id="u6u-6mcUBMvmuvBpNIPu-12" value="" style="endArrow=none;html=1;rounded=0;labelBackgroundColor=none;strokeColor=#E07A5F;fontColor=default;fillColor=#F2CC8F;exitX=0;exitY=0.25;exitDx=0;exitDy=0;" edge="1" parent="1">
          <mxGeometry width="50" height="50" relative="1" as="geometry">
            <mxPoint x="320" y="319.84" as="sourcePoint" />
            <mxPoint x="470" y="319.84" as="targetPoint" />
          </mxGeometry>
        </mxCell>
        <mxCell id="u6u-6mcUBMvmuvBpNIPu-13" value="" style="edgeLabel;html=1;align=center;verticalAlign=middle;resizable=0;points=[];strokeColor=#E07A5F;fontColor=#393C56;fillColor=#F2CC8F;labelBackgroundColor=none;" vertex="1" connectable="0" parent="u6u-6mcUBMvmuvBpNIPu-12">
          <mxGeometry x="-0.2179" y="1" relative="1" as="geometry">
            <mxPoint as="offset" />
          </mxGeometry>
        </mxCell>
        <mxCell id="u6u-6mcUBMvmuvBpNIPu-14" value="" style="edgeLabel;html=1;align=center;verticalAlign=middle;resizable=0;points=[];strokeColor=#E07A5F;fontColor=#393C56;fillColor=#F2CC8F;labelBackgroundColor=none;" vertex="1" connectable="0" parent="u6u-6mcUBMvmuvBpNIPu-12">
          <mxGeometry x="0.2107" y="1" relative="1" as="geometry">
            <mxPoint as="offset" />
          </mxGeometry>
        </mxCell>
        <mxCell id="u6u-6mcUBMvmuvBpNIPu-15" value="Proxy" style="fillColor=none;strokeColor=none;html=1;fontSize=11;fontStyle=0;align=left;fontColor=#393C56;fontStyle=1;fontSize=11;labelBackgroundColor=none;" vertex="1" parent="1">
          <mxGeometry x="380" y="300" width="30" height="20" as="geometry" />
        </mxCell>
        <mxCell id="u6u-6mcUBMvmuvBpNIPu-17" value="" style="whiteSpace=wrap;html=1;aspect=fixed;strokeColor=#E07A5F;fontColor=#393C56;fillColor=#F2CC8F;labelBackgroundColor=none;" vertex="1" parent="1">
          <mxGeometry x="560" y="310" width="80" height="80" as="geometry" />
        </mxCell>
        <mxCell id="u6u-6mcUBMvmuvBpNIPu-18" value="Server&lt;div&gt;Google&lt;/div&gt;" style="fillColor=none;strokeColor=none;html=1;fontSize=11;fontStyle=0;align=center;fontColor=#393C56;fontStyle=1;fontSize=11;labelBackgroundColor=none;" vertex="1" parent="1">
          <mxGeometry x="585" y="335" width="30" height="20" as="geometry" />
        </mxCell>
        <mxCell id="u6u-6mcUBMvmuvBpNIPu-19" value="" style="whiteSpace=wrap;html=1;aspect=fixed;fillColor=#F2CC8F;strokeColor=#E07A5F;labelBackgroundColor=none;fontColor=#393C56;" vertex="1" parent="1">
          <mxGeometry x="450" y="330" width="10" height="10" as="geometry" />
        </mxCell>
        <mxCell id="u6u-6mcUBMvmuvBpNIPu-20" value="" style="whiteSpace=wrap;html=1;aspect=fixed;fillColor=#F2CC8F;strokeColor=#E07A5F;labelBackgroundColor=none;fontColor=#393C56;" vertex="1" parent="1">
          <mxGeometry x="450" y="355" width="10" height="10" as="geometry" />
        </mxCell>
        <mxCell id="u6u-6mcUBMvmuvBpNIPu-21" value="" style="whiteSpace=wrap;html=1;aspect=fixed;fillColor=#F2CC8F;strokeColor=#E07A5F;labelBackgroundColor=none;fontColor=#393C56;" vertex="1" parent="1">
          <mxGeometry x="330" y="330" width="10" height="10" as="geometry" />
        </mxCell>
        <mxCell id="u6u-6mcUBMvmuvBpNIPu-22" value="" style="whiteSpace=wrap;html=1;aspect=fixed;fillColor=#F2CC8F;strokeColor=#E07A5F;labelBackgroundColor=none;fontColor=#393C56;" vertex="1" parent="1">
          <mxGeometry x="330" y="355" width="10" height="10" as="geometry" />
        </mxCell>
        <mxCell id="u6u-6mcUBMvmuvBpNIPu-23" value="" style="endArrow=classic;html=1;rounded=0;strokeColor=#b85450;exitX=1;exitY=0.333;exitDx=0;exitDy=0;exitPerimeter=0;entryX=0;entryY=0.5;entryDx=0;entryDy=0;labelBackgroundColor=none;fontColor=default;fillColor=#f8cecc;" edge="1" parent="1" source="u6u-6mcUBMvmuvBpNIPu-1" target="u6u-6mcUBMvmuvBpNIPu-21">
          <mxGeometry width="50" height="50" relative="1" as="geometry">
            <mxPoint x="260" y="400" as="sourcePoint" />
            <mxPoint x="310" y="350" as="targetPoint" />
          </mxGeometry>
        </mxCell>
        <mxCell id="u6u-6mcUBMvmuvBpNIPu-24" value="" style="endArrow=classic;html=1;rounded=0;strokeColor=#b85450;exitX=1;exitY=0.333;exitDx=0;exitDy=0;exitPerimeter=0;labelBackgroundColor=none;fontColor=default;fillColor=#f8cecc;entryX=0.033;entryY=0.34;entryDx=0;entryDy=0;entryPerimeter=0;" edge="1" parent="1" target="u6u-6mcUBMvmuvBpNIPu-17">
          <mxGeometry width="50" height="50" relative="1" as="geometry">
            <mxPoint x="460" y="335" as="sourcePoint" />
            <mxPoint x="580" y="340" as="targetPoint" />
          </mxGeometry>
        </mxCell>
        <mxCell id="u6u-6mcUBMvmuvBpNIPu-25" value="" style="endArrow=classic;html=1;rounded=0;strokeColor=#b85450;exitX=-0.012;exitY=0.635;exitDx=0;exitDy=0;exitPerimeter=0;labelBackgroundColor=none;fontColor=default;fillColor=#f8cecc;entryX=1;entryY=0.5;entryDx=0;entryDy=0;" edge="1" parent="1" source="u6u-6mcUBMvmuvBpNIPu-17" target="u6u-6mcUBMvmuvBpNIPu-20">
          <mxGeometry width="50" height="50" relative="1" as="geometry">
            <mxPoint x="580" y="365" as="sourcePoint" />
            <mxPoint x="700" y="370" as="targetPoint" />
          </mxGeometry>
        </mxCell>
        <mxCell id="u6u-6mcUBMvmuvBpNIPu-26" value="" style="endArrow=classic;html=1;rounded=0;strokeColor=#b85450;exitX=1;exitY=0.333;exitDx=0;exitDy=0;exitPerimeter=0;labelBackgroundColor=none;fontColor=default;fillColor=#f8cecc;entryX=0.989;entryY=0.602;entryDx=0;entryDy=0;entryPerimeter=0;" edge="1" parent="1" target="u6u-6mcUBMvmuvBpNIPu-1">
          <mxGeometry width="50" height="50" relative="1" as="geometry">
            <mxPoint x="330" y="360" as="sourcePoint" />
            <mxPoint x="210" y="355" as="targetPoint" />
          </mxGeometry>
        </mxCell>
        <mxCell id="u6u-6mcUBMvmuvBpNIPu-27" value="" style="endArrow=classic;html=1;rounded=0;strokeColor=#E07A5F;fontColor=#393C56;fillColor=#F2CC8F;shape=link;exitX=1;exitY=0.5;exitDx=0;exitDy=0;entryX=0;entryY=0.5;entryDx=0;entryDy=0;" edge="1" parent="1" source="u6u-6mcUBMvmuvBpNIPu-21" target="u6u-6mcUBMvmuvBpNIPu-19">
          <mxGeometry width="50" height="50" relative="1" as="geometry">
            <mxPoint x="355" y="334.76" as="sourcePoint" />
            <mxPoint x="435" y="334.76" as="targetPoint" />
          </mxGeometry>
        </mxCell>
        <mxCell id="u6u-6mcUBMvmuvBpNIPu-28" value="" style="endArrow=classic;html=1;rounded=0;strokeColor=#E07A5F;fontColor=#393C56;fillColor=#F2CC8F;shape=link;exitX=1;exitY=0.5;exitDx=0;exitDy=0;entryX=0;entryY=0.5;entryDx=0;entryDy=0;" edge="1" parent="1">
          <mxGeometry width="50" height="50" relative="1" as="geometry">
            <mxPoint x="340" y="359.76" as="sourcePoint" />
            <mxPoint x="450" y="359.76" as="targetPoint" />
          </mxGeometry>
        </mxCell>
        <mxCell id="u6u-6mcUBMvmuvBpNIPu-29" value="" style="endArrow=none;html=1;rounded=0;entryX=1;entryY=0.75;entryDx=0;entryDy=0;labelBackgroundColor=none;strokeColor=#E07A5F;fontColor=default;fillColor=#F2CC8F;exitX=0;exitY=0.75;exitDx=0;exitDy=0;" edge="1" parent="1" source="u6u-6mcUBMvmuvBpNIPu-6" target="u6u-6mcUBMvmuvBpNIPu-6">
          <mxGeometry width="50" height="50" relative="1" as="geometry">
            <mxPoint x="160" y="338" as="sourcePoint" />
            <mxPoint x="250" y="338" as="targetPoint" />
          </mxGeometry>
        </mxCell>
        <mxCell id="u6u-6mcUBMvmuvBpNIPu-30" value="" style="edgeLabel;html=1;align=center;verticalAlign=middle;resizable=0;points=[];strokeColor=#E07A5F;fontColor=#393C56;fillColor=#F2CC8F;labelBackgroundColor=none;" vertex="1" connectable="0" parent="u6u-6mcUBMvmuvBpNIPu-29">
          <mxGeometry x="-0.2179" y="1" relative="1" as="geometry">
            <mxPoint as="offset" />
          </mxGeometry>
        </mxCell>
        <mxCell id="u6u-6mcUBMvmuvBpNIPu-31" value="GUI" style="rounded=0;whiteSpace=wrap;html=1;strokeColor=#E07A5F;fontColor=#393C56;fillColor=#F2CC8F;" vertex="1" parent="1">
          <mxGeometry x="325" y="430" width="140" height="30" as="geometry" />
        </mxCell>
        <mxCell id="u6u-6mcUBMvmuvBpNIPu-32" value="" style="endArrow=classic;startArrow=classic;html=1;rounded=0;strokeColor=#E07A5F;fontColor=#393C56;fillColor=#F2CC8F;exitX=0.497;exitY=-0.092;exitDx=0;exitDy=0;exitPerimeter=0;" edge="1" parent="1" source="u6u-6mcUBMvmuvBpNIPu-31">
          <mxGeometry width="50" height="50" relative="1" as="geometry">
            <mxPoint x="394.76" y="420" as="sourcePoint" />
            <mxPoint x="394.76" y="390" as="targetPoint" />
          </mxGeometry>
        </mxCell>
      </root>
    </mxGraphModel>
  </diagram>
</mxfile>
